<mxfile modified="2024-04-19T23:02:23.019Z" host="app.diagrams.net" agent="Mozilla/5.0 (Windows NT 10.0; Win64; x64; rv:124.0) Gecko/20100101 Firefox/124.0" etag="2TqFOCaDAxWxF0iX4pz2" version="24.2.7" type="github">
  <diagram id="Ht1M8jgEwFfnCIfOTk4-" name="Page-1">
    <mxGraphModel dx="2551" dy="2219" grid="1" gridSize="10" guides="1" tooltips="1" connect="1" arrows="1" fold="1" page="1" pageScale="1" pageWidth="1169" pageHeight="827" math="0" shadow="0">
      <root>
        <mxCell id="0" />
        <mxCell id="1" parent="0" />
        <mxCell id="UEzPUAAOIrF-is8g5C7q-74" value="AWS Cloud" style="points=[[0,0],[0.25,0],[0.5,0],[0.75,0],[1,0],[1,0.25],[1,0.5],[1,0.75],[1,1],[0.75,1],[0.5,1],[0.25,1],[0,1],[0,0.75],[0,0.5],[0,0.25]];outlineConnect=0;gradientColor=none;html=1;whiteSpace=wrap;fontSize=12;fontStyle=0;shape=mxgraph.aws4.group;grIcon=mxgraph.aws4.group_aws_cloud_alt;strokeColor=#FF8000;fillColor=none;verticalAlign=top;align=left;spacingLeft=30;fontColor=#232F3E;dashed=0;labelBackgroundColor=#ffffff;container=1;pointerEvents=0;collapsible=0;recursiveResize=0;" parent="1" vertex="1">
          <mxGeometry x="360" y="80" width="1108" height="650" as="geometry" />
        </mxCell>
        <mxCell id="g7OZx259YmDq5c4rlB1h-33" style="edgeStyle=orthogonalEdgeStyle;rounded=0;orthogonalLoop=1;jettySize=auto;html=1;" edge="1" parent="UEzPUAAOIrF-is8g5C7q-74" source="g7OZx259YmDq5c4rlB1h-5" target="g7OZx259YmDq5c4rlB1h-32">
          <mxGeometry relative="1" as="geometry" />
        </mxCell>
        <mxCell id="g7OZx259YmDq5c4rlB1h-5" value="S3 - Trusted" style="outlineConnect=0;fontColor=#232F3E;gradientColor=none;fillColor=#277116;strokeColor=none;dashed=0;verticalLabelPosition=bottom;verticalAlign=top;align=center;html=1;fontSize=12;fontStyle=0;aspect=fixed;pointerEvents=1;shape=mxgraph.aws4.bucket;labelBackgroundColor=#ffffff;" vertex="1" parent="UEzPUAAOIrF-is8g5C7q-74">
          <mxGeometry x="357.5" y="90" width="75" height="78" as="geometry" />
        </mxCell>
        <mxCell id="g7OZx259YmDq5c4rlB1h-15" value="&lt;div&gt;S3 -Client&lt;/div&gt;" style="outlineConnect=0;fontColor=#232F3E;gradientColor=none;fillColor=#277116;strokeColor=none;dashed=0;verticalLabelPosition=bottom;verticalAlign=top;align=center;html=1;fontSize=12;fontStyle=0;aspect=fixed;pointerEvents=1;shape=mxgraph.aws4.bucket;labelBackgroundColor=#ffffff;" vertex="1" parent="UEzPUAAOIrF-is8g5C7q-74">
          <mxGeometry x="110" y="285" width="75" height="78" as="geometry" />
        </mxCell>
        <mxCell id="g7OZx259YmDq5c4rlB1h-23" value="DocumentDB" style="sketch=0;outlineConnect=0;fontColor=#232F3E;gradientColor=none;fillColor=#C925D1;strokeColor=none;dashed=0;verticalLabelPosition=bottom;verticalAlign=top;align=center;html=1;fontSize=12;fontStyle=0;aspect=fixed;pointerEvents=1;shape=mxgraph.aws4.documentdb_elastic_clusters;" vertex="1" parent="UEzPUAAOIrF-is8g5C7q-74">
          <mxGeometry x="345.75" y="480" width="98" height="98" as="geometry" />
        </mxCell>
        <mxCell id="g7OZx259YmDq5c4rlB1h-34" style="edgeStyle=orthogonalEdgeStyle;rounded=0;orthogonalLoop=1;jettySize=auto;html=1;" edge="1" parent="UEzPUAAOIrF-is8g5C7q-74" source="g7OZx259YmDq5c4rlB1h-32" target="g7OZx259YmDq5c4rlB1h-23">
          <mxGeometry relative="1" as="geometry" />
        </mxCell>
        <mxCell id="g7OZx259YmDq5c4rlB1h-35" style="edgeStyle=orthogonalEdgeStyle;rounded=0;orthogonalLoop=1;jettySize=auto;html=1;" edge="1" parent="UEzPUAAOIrF-is8g5C7q-74" source="g7OZx259YmDq5c4rlB1h-32" target="g7OZx259YmDq5c4rlB1h-15">
          <mxGeometry relative="1" as="geometry" />
        </mxCell>
        <mxCell id="g7OZx259YmDq5c4rlB1h-37" value="VPC" style="sketch=0;outlineConnect=0;gradientColor=none;html=1;whiteSpace=wrap;fontSize=12;fontStyle=0;shape=mxgraph.aws4.group;grIcon=mxgraph.aws4.group_vpc;strokeColor=#879196;fillColor=none;verticalAlign=top;align=left;spacingLeft=30;fontColor=#879196;dashed=0;" vertex="1" parent="UEzPUAAOIrF-is8g5C7q-74">
          <mxGeometry x="260" y="233" width="770" height="387" as="geometry" />
        </mxCell>
        <mxCell id="g7OZx259YmDq5c4rlB1h-32" value="" style="sketch=0;outlineConnect=0;fontColor=#232F3E;gradientColor=none;fillColor=#ED7100;strokeColor=none;dashed=0;verticalLabelPosition=bottom;verticalAlign=top;align=center;html=1;fontSize=12;fontStyle=0;aspect=fixed;pointerEvents=1;shape=mxgraph.aws4.instance2;" vertex="1" parent="UEzPUAAOIrF-is8g5C7q-74">
          <mxGeometry x="344" y="273.25" width="101.5" height="101.5" as="geometry" />
        </mxCell>
        <mxCell id="g7OZx259YmDq5c4rlB1h-39" value="" style="sketch=0;outlineConnect=0;fontColor=#232F3E;gradientColor=none;fillColor=#ED7100;strokeColor=none;dashed=0;verticalLabelPosition=bottom;verticalAlign=top;align=center;html=1;fontSize=12;fontStyle=0;aspect=fixed;pointerEvents=1;shape=mxgraph.aws4.instance2;" vertex="1" parent="UEzPUAAOIrF-is8g5C7q-74">
          <mxGeometry x="679" y="363" width="130" height="130" as="geometry" />
        </mxCell>
        <mxCell id="g7OZx259YmDq5c4rlB1h-51" style="edgeStyle=orthogonalEdgeStyle;rounded=0;orthogonalLoop=1;jettySize=auto;html=1;endArrow=none;endFill=0;" edge="1" parent="UEzPUAAOIrF-is8g5C7q-74" source="g7OZx259YmDq5c4rlB1h-52" target="g7OZx259YmDq5c4rlB1h-47">
          <mxGeometry relative="1" as="geometry">
            <Array as="points">
              <mxPoint x="530" y="424" />
              <mxPoint x="530" y="424" />
            </Array>
          </mxGeometry>
        </mxCell>
        <mxCell id="g7OZx259YmDq5c4rlB1h-42" value="Public" style="sketch=0;outlineConnect=0;gradientColor=none;html=1;whiteSpace=wrap;fontSize=12;fontStyle=0;shape=mxgraph.aws4.group;grIcon=mxgraph.aws4.group_subnet;strokeColor=#879196;fillColor=none;verticalAlign=top;align=left;spacingLeft=30;fontColor=#879196;dashed=0;" vertex="1" parent="UEzPUAAOIrF-is8g5C7q-74">
          <mxGeometry x="625" y="309" width="230" height="230" as="geometry" />
        </mxCell>
        <mxCell id="g7OZx259YmDq5c4rlB1h-36" value="" style="image;aspect=fixed;html=1;points=[];align=center;fontSize=12;image=img/lib/azure2/analytics/Power_BI_Embedded.svg;" vertex="1" parent="UEzPUAAOIrF-is8g5C7q-74">
          <mxGeometry x="724" y="401.33" width="40" height="53.34" as="geometry" />
        </mxCell>
        <mxCell id="g7OZx259YmDq5c4rlB1h-46" value="" style="sketch=0;outlineConnect=0;fontColor=#232F3E;gradientColor=none;fillColor=#8C4FFF;strokeColor=none;dashed=0;verticalLabelPosition=bottom;verticalAlign=top;align=center;html=1;fontSize=12;fontStyle=0;aspect=fixed;pointerEvents=1;shape=mxgraph.aws4.internet_gateway;" vertex="1" parent="UEzPUAAOIrF-is8g5C7q-74">
          <mxGeometry x="1080" y="389.75" width="48" height="48" as="geometry" />
        </mxCell>
        <mxCell id="g7OZx259YmDq5c4rlB1h-47" value="Private" style="sketch=0;outlineConnect=0;gradientColor=none;html=1;whiteSpace=wrap;fontSize=12;fontStyle=0;shape=mxgraph.aws4.group;grIcon=mxgraph.aws4.group_subnet;strokeColor=#879196;fillColor=none;verticalAlign=top;align=left;spacingLeft=30;fontColor=#879196;dashed=0;" vertex="1" parent="UEzPUAAOIrF-is8g5C7q-74">
          <mxGeometry x="279.75" y="270" width="230" height="340" as="geometry" />
        </mxCell>
        <mxCell id="g7OZx259YmDq5c4rlB1h-50" value="" style="sketch=0;outlineConnect=0;fontColor=#232F3E;gradientColor=none;fillColor=#8C4FFF;strokeColor=none;dashed=0;verticalLabelPosition=bottom;verticalAlign=top;align=center;html=1;fontSize=12;fontStyle=0;aspect=fixed;pointerEvents=1;shape=mxgraph.aws4.customer_gateway;" vertex="1" parent="UEzPUAAOIrF-is8g5C7q-74">
          <mxGeometry x="900" y="388.75" width="50" height="50" as="geometry" />
        </mxCell>
        <mxCell id="g7OZx259YmDq5c4rlB1h-57" style="edgeStyle=orthogonalEdgeStyle;rounded=0;orthogonalLoop=1;jettySize=auto;html=1;endArrow=none;endFill=0;" edge="1" parent="UEzPUAAOIrF-is8g5C7q-74" source="g7OZx259YmDq5c4rlB1h-52" target="g7OZx259YmDq5c4rlB1h-42">
          <mxGeometry relative="1" as="geometry" />
        </mxCell>
        <mxCell id="g7OZx259YmDq5c4rlB1h-52" value="" style="sketch=0;outlineConnect=0;fontColor=#232F3E;gradientColor=none;fillColor=#8C4FFF;strokeColor=none;dashed=0;verticalLabelPosition=bottom;verticalAlign=top;align=center;html=1;fontSize=12;fontStyle=0;aspect=fixed;pointerEvents=1;shape=mxgraph.aws4.customer_gateway;" vertex="1" parent="UEzPUAAOIrF-is8g5C7q-74">
          <mxGeometry x="550" y="399" width="50" height="50" as="geometry" />
        </mxCell>
        <mxCell id="g7OZx259YmDq5c4rlB1h-10" style="edgeStyle=orthogonalEdgeStyle;rounded=0;orthogonalLoop=1;jettySize=auto;html=1;" edge="1" parent="1" source="g7OZx259YmDq5c4rlB1h-2" target="g7OZx259YmDq5c4rlB1h-3">
          <mxGeometry relative="1" as="geometry" />
        </mxCell>
        <mxCell id="g7OZx259YmDq5c4rlB1h-2" value="&lt;b&gt;&lt;font style=&quot;font-size: 18px;&quot;&gt;Sensores&lt;/font&gt;&lt;/b&gt;" style="verticalLabelPosition=bottom;aspect=fixed;html=1;shape=mxgraph.salesforce.iot2;" vertex="1" parent="1">
          <mxGeometry x="720" y="-440" width="70" height="70" as="geometry" />
        </mxCell>
        <mxCell id="g7OZx259YmDq5c4rlB1h-7" value="" style="rounded=0;whiteSpace=wrap;html=1;fillColor=none;strokeColor=#A9C4EB;strokeWidth=2;" vertex="1" parent="1">
          <mxGeometry x="360" y="-240" width="780" height="290" as="geometry" />
        </mxCell>
        <mxCell id="g7OZx259YmDq5c4rlB1h-11" style="edgeStyle=orthogonalEdgeStyle;rounded=0;orthogonalLoop=1;jettySize=auto;html=1;" edge="1" parent="1" source="g7OZx259YmDq5c4rlB1h-48" target="g7OZx259YmDq5c4rlB1h-5">
          <mxGeometry relative="1" as="geometry">
            <Array as="points">
              <mxPoint x="740" y="179" />
            </Array>
          </mxGeometry>
        </mxCell>
        <mxCell id="g7OZx259YmDq5c4rlB1h-3" value="IOT HUB" style="image;aspect=fixed;html=1;points=[];align=center;fontSize=12;image=img/lib/azure2/iot/IoT_Hub.svg;" vertex="1" parent="1">
          <mxGeometry x="723" y="-160" width="64" height="64" as="geometry" />
        </mxCell>
        <mxCell id="g7OZx259YmDq5c4rlB1h-8" value="" style="shape=image;verticalLabelPosition=bottom;labelBackgroundColor=default;verticalAlign=top;aspect=fixed;imageAspect=0;image=data:image/png,iVBORw0KGgoAAAANSUhEUgAADwAAAAhwAgMAAADt0CPhAAAABGdBTUEAALGPC/xhBQAAAAFzUkdCAK7OHOkAAAAJUExURUdwTABzygBzys5KnHUAAAACdFJOUwCfFiND7QAAIABJREFUeNrs3U1y3EgOBlBXxQwXXM2aR+ApdB6eQkfwEbjwohunnHG7Zcty/RBkkk143ttbjkgFKoH8IOnTJwAAAAAAAAAAAAAAAAAAAAAAAAAA4P/KvxwB1PUfRwB1fXYEUNb11RlAWcOLM4CyJgUMZV3CGUBZ3Z/OAOqOwH84AygrvjgDqOoas0OAsh10fHYIUNUUrw4BirpEvDgFKKpTwFDXGPY4oKwIexxQuIO2xwFVDWGPA8qaImanADVdIuxxQOER2B4HVDWGGBjK+l/9ioGhcActBoaiBgUMdU1hjwOq+hoi2eOAovqvBTw7Byjpa4hkjwMKd9D2OKCm7q8CfnEQUNEQ9jigrK8hkhgYKo/AYmAo6a8QSQwMNY0KGIp30DE7CSjoW4hkjwNK+hYi2eOAkqawxwFVXb/Vrz0OqOhbiGSPAyp30PY4oKC/QyQxMFT0d4gUs6OAegYFDOVHYHscUNBbiGSPAwrq3wr4xVlA2Q7aHgfU8xYi2eOAgt5CJHscUNBbiGSPAwp6q9+YnQVU8z1EEgND4Q5aAUM930MkexxQzvcQyR4H1NP9KGCHAXVHYHscUM6PC9geB1TzI0SyxwGFO+iYnQYU8yNEEgNDNe9CJDEwVPMuRBIDQ+ERWAFDNe/q1x4HFO6g7XFA4Q7aHgcU8y5EsscBxbwPkWJ2HlB2BLbHAcWMYY8Dynpfv2JgKNxBi4GhlkEBQ13vQyR7HFDLTyGSPQ6oPALb44BSfgqRYnYgULaDtscBhTtoexxQys8hkj0OKGUKMTD8JiOwGBgq6RUw1PVziGSPAwp30PY4oJIPIVLMjgTq+BAi2eOASj6ESPY4oPAIbI8DCuk/FrAjgTo+hEhiYKjcQYuBoY6PIZIYGAoZFDDU9TFEitmZQBXXj/VrjwPq+CVEsscBhTtoexxQxi8hkj0OqOOXEMkeB9TxS4hkjwMqj8BiYKji1xApZqcCRfQKGH6nDtoeB1RxI0SyxwFVdDcK+MWxQA1D2OOAsm7Urz0OKOJGiGSPAyp30PY4oIgbIVLMjgVKuBUiiYGhiE4Bw+81AtvjgCJu1a89DqjherOAnQvU7aDtcUANt0IkexxQw80QyR4H1HAzRIrZwUAFY4iBoayb9SsGhsIdtBgYShgUMNQ1hT0OqOp2iGSPAyqPwPY4oILbIZI9Dijhdv3G7GSgbAdtjwMquBMi2eOACu6ESGJgKOBOiCQGhgp6BQx13QmR7HFA5Q7aHgec370QyR4HFHAvRIrZ2cDp3QuR7HFA4RHYHgec390QyR4HnN8YYmD4/TpoMTCcXqeAoa67IZI9Dji/uyGSPQ44vevd+o3Z6cDJ3Q+R7HFA4Q7aHgec3f0QyR4HnF73oICdDpzc/RBJDAyVR2AxMJzcgxApFQP/21HC8fpGBdw7SjhVBx1zpoBfnCUc7VGIlNrjGF4dJhztUYiU2uMYPztMONoQjfY4xtlhwtEe1W9qj2Pyk0twtEchUm6PQ2gM5+qgMyV5sXcJh3sUIqVi4IuffICjPQyRYs714q/OEw71MERKxcCdn/6HU43A2QKenScc6mH9pnri3m/Ag4NdHxfwS+4ulyPBiTroSH4pP/4Ph3oYIuUKcvQbtOBYj0OkXEs8+R2WcKzHIVLuUcpvkYZzjcBztoBnRwrHeVy/qQv14i8pwak66NRIe/VLLOFUHXS+gOVIcJwp2u1xdP6QAxzqSYiUK8fe30KDU43AqYZ48NdI4VBjNNzjGPw9cDjUsw76S/7TQI4EJ+mgc9fp5I+hwZGehUi5gXby50jhSM9CpNyTsj8IDkd6GiKlYuDLin8D7DcCp4rxuqbtBtYao+Uex3XNwxewWwedepDq1kRPwG4ddCoS6tf8I2ClpyFS7jLt11zbwEpPQ6TcODuEHAlONALnHpTHkCPBYfrnBfy66kJ/dbawu+chUu4unUKOBCfqoHPT7LqnL2CN5yFS7j35si58AtYYditgORLs7nmIlLtKrys7b2CfETg1zHYr376AvAUhUswrC/jV8cK+FoRIuT2OfuW/A3bpoHM36RByJDhIt6SAU7PsqIDhKEO03uMYQ44EB1kQIiXrcAo5EhzjuuQCzm1Ure69gaR+3wJ+dcLwD3fQubeoy+r8CchZFCLFvLopnx0x7GdRiJS7R7vVdzeQsyhEyk2y3fr3a6D9CJx7S+7XJ8jA6nm10R7HEHIkOMSiECnZBw8hR4ITddC5GHgMORIcYVmIlHxKnkKOBEfo9ijgLf8WWDuuttnj+LSl/QbW1lqbPY7LlhdsYLGFIVLuJfm6JUMGWnfQuRq8bql+YLEpdtjj6Lb038DaabXNHke/6QUMWHlXttnjGEKOBCcagb9s+qpyJNjFwvpNNsHjpgYcWGZpiJR8hppCjgTn6aC3FvCro4b2loZIyQrcWP/AEktDpGQPfNk4QgNLdIsLeOPnghwJ2htjlz2O68YYGVg1q7bZ4+g2fgAATTvoXAvcb2zBgQUWh0gxby3gV6cNjS0OkZIx0BByJNjb8hApeYGOIUeC84zA2wtYjgSNjbHPHset1lyOBI0tr9/Y/IXlSPCPddC58rts/wgAnlgeIiUb4Mv2JhzIT6pt9jiu24MoYMU92WSPo9v+JYDH+kQBf95ewHIkaCkRIiVj4H77GA0066CTL1BDyJFgX91+BTyGHAn2NcRuexxjyJFgX4kQKdv+Tg3maKDVCJx8gGoRRQEPZEKkbATU5IsA2Tm1yR7Hpck1DrTpoJN7HNcmgzRwVypESr4/dU2esoG7UiFSMgHqmnwV4K4p9ouB+yb3OJAcU9vEwEOTSRrIXpK7FrAcCf6JDjoZAI0hR4Id5UKk7NU5hRwJdpQLkWJudL07eGghFyJlX58apVFAixE4mf9cGn0d4KZciJS9Oa+tbnLglj5ZwK0+HmZHD4d30MnX467VazaQGlKb5Ld9q08CIHVFNrk4+1a9OHDDsG8BDyFHgv0k6zfm3JcfQ44Eu8mGSNn0Zwo5Epymg87em1PIkWA3U+y6x/Gp3TQNfJQNkbJvx5d2iTLwUTZEyladAoYzjcDJPY5rw24cWD6iNhlcu4bvYUDigtx5EUuOBEd30DE3LODZNwC2SIdI2VtzCDkS7CQfImXn1rHhgxjwky5fwC8NC1iOBMeOwNmfAZxCjgQ7ydfvn03/h1ffAjiyg06OrZemL2LAtg76S9MCnn0PYLV8iJQtuWvTjwNg8fXYountmjbkwKYRuHEBy5FgtTF23+Po24ZSwHcr6jeb3A4hR4LTdNDZK3MIORLsYkWIlB5ax5AjwS5WhEjpZ+Mp5EiwhzUhUrrgWn8gABtG4LlxAcuRYJ01IVL20enS+lEMWN9BZ2Ofa+tYCljfQbcv4M++E7DCEAfscXTNh2rgqykO2OPomz9rA6tH4Oyj8RByJNhBv6qA/2hewHIkWGFViJRueMeQI8FZOuiY2w/aL74Z/2XnDo4s120oDI+04EIhKARFceNRFDeEDkGLt5hhlF554XKVPTwCQJD8vwCmVcWGCOCoB2ilhUjNoc9tHkwBUEOk5mpzuNQBiCFSa7+7OYzVAMQRuHXjtDsstgEceQqYHAlopYVIzcVWHF4KAB20eAG3truHw1wNLE8MkZoXTofHZhtYnRgi1cfj5/xwHkATMURqrrWrkiMB1naxfpu73ZsCBsypIVLzvumu5EhAlg66OfHx+VeBpakhUvNdufnc68DSSrIC/nIkwN9TQ6Tm7zh2n902wAgc8R1H8UmXgZXJIVJzpRWf9wKwMjlEau51D5/RGqCDjviO46zkSIAtOURqz3uuSo4E2Cp6Af9yKuAvpwIY97UGs+pdyZEAW/oF/NvrRz2cCvB39BCpPe5x+4cBOmj3At7cenNgVXqI1Nzp7hQwYOtFiNS8aypu+RSwqBchUnPaU9z+ZYAR2P07jsPtbgcW9aJ+q9/L4uFggL/wIkRqXzWdlRwJyNJBN3/Hcfn908CSXoRI7dfkXcmRAENvQqT2QdVxPwasqGQt4C9nAxhOpQZZz+b4bwMrelO/zbfk7nm7A3TQvt9x7J4LMmA9Z438jqN4RlTAet6ESO1Rz+H5jwPLeRUitV+Sp+f1DjAC+37HcVZyJMDOqxCpPq4/7ofjAf63V/XbXmJ3JUcCknTQzgVMjgQYzqQGU6rvigxYzF1Dv+PYfEMqYC3vQqT2oGfz/eeBtRzv6rf5itx9L3hgLe9CpPYhtTjvyAA6aMc18eEcMwMreRkitRfY4fyCAFbyMkRqb3HPSo4EWHkZIrXHwFclRwKSjMDtW+KrkiMBRo7wAr4rORJg5KrB33H8cu/RATpotxF1c19zA8t4GyK1L4k396AZWMbbEKm9vHb3VwSwjLchUnuDW9ybdGAV+9v6bf+Oo/ivyYBFvA6R2nfEh39QBdBBe1XXWcmRABOvQyShv738u3RgDWWIAiZHAoza2fcr4ruSIwFJRuD24op4SQAreB8iCe1tRJsOrOB9iFSf1p+5RWy6ATponw3xHpE1AwswCJHaa6tEvCWABRiESO3dbYno04EFnLVDDHyEbMqA+RnU75+QtwY5EvBf9mEKmBwJcOmg27/juCo5EmDAIEQSptO7kiMB71mESPWJKeAfjgv4TxYhklBZQe8JgBHYobfdgjp1YHIW9du+XdqDlt3A3HaTAo76sZwXYN9Bt9+MJeimB+ZmESIJMfARNGsDUzMJkYTl0hG17QZmVjoV8FnJkYAcI7BQV1clRwJeM6lfobO9o4ZtgA7afrd0V4JgIEcHLaQ7cT8JmNdtU8DNP3eLu+uBadmESEJju8VN2wAjsPVqaY/bdwPTumqnGLjE/ShgWjb1K1yLR9xlD9BBpylgciTg34xCJGGzdMYtvIFZGYVIQrZzVXIk4B2jEEn5uuKq5EhAjhFYaGvvSo4EvGMUIimLpcjICqCDto12tsgfBtBB216KW+h1D8zIKkQSxtI9dOAGZmQVIgmL4RK68gYYgdMU8A9HB7z4mtHg24ojtGEHJnSZFXB7U3tWciQgRwctrJXOSo4EvGEWIinBzlXJkYA3zEIk5Uq8KzkS8IZZiKQMpcEjN8AIbLkWDl56A7OxC5GEYHaLfmEAk7ELkYQbcY9u2QE6aLuZdI9emgFzKV0LuETHVsBcTsMCDh/AOT6szi5EUi7Es5IjAbrd8AL+HV7AXw4QazMMkZSl8BWdWwF00Hax7F3JkQCZZYik3IcUMPCCZYikTKTxazNgIpYhkrAT3uKDK4AR2Kqa9vh3BjAPyxBJ6Wf3Dl07MI2jcwGXDnszgA7a6DuOo0NyBczCNERSMp2jw0sDmIVpiKTchmclRwJUpiGSMo9elRwJUJnWr7IRfj+DfzhFrGq3LeBPjwL+coygg+70HcevLn07MAfTEEnZJ21dNmfAFGxDJCXRMXgC/h4JqyrdC3jvcu8DjMAmd2GhgAGVbf0q02jps/sGJmAcIin7YIu/pfhykqCD7lNJZyVHAjS3cQELvexVyZEAiXGIJH3HcVVyJEBiHCJJ62CLJoA/KMSSLuMCVgqp14sDGJ51B/1Pr2f4cJagg+5RwFuv7TcwOusQqT7tz2CTRP9wmFiPdYik1FHp9eYABmceIimdbOk2fAOMwK93SUe39Tcwtsu8gLvN4eRIWI95/f7pVsD8x5Sgg+7SyF7dpm9gaOYhkrRKurvtv4GhmYdI9enXxz+cJ9ZiHyJJ12DHyx8Y2JGigLeO4zcwMPsQSdkk7R0X4AAd9MvvOMz+Uy5OFEspDgXc8zE+HClWYh8iSW3s0XOBBgzLPkSSFklm75GHIwUjcHiUc/b84cCoHEIk6RK8el7/wKgcQiRpDL17DuAAHfS7Pyi4e67AgUGVLAXcNYQGBnV6FLBQQlvf1wcwptujgPu28g+nilXsHvX7p++DkCNhGR4hkhTklL4/HqCDfnMFHn0bAGBELiGSNIQefUdwYEQuIZL0HcfZdwkOjMglRJJynKvzzwcYgV/cgFfnDgAYj0uIpBXw3XmJBozn8Clg5VF6x1gAHbQe42y9HwAYjk+IJF2AW/cWABiNT4gkjaB79yEcGI1PiFSf7u+SL2eLBfjUr5TilO5PAAzGKUSS7r+jew8A0EHLE+jZfY0GDOZ2KmDlWWz/az1yJMzPKUTSqufq/w4BhlIyFfDdv4sHGIHVATTBHg0YilP9an9KkCDJAkbiFSLVJ8E8/nC+oIOOu/32DF0AMBCvEEmaP0uGRRowDq8QSdsAm2/EOWDMrbgVsPI0R4a3CMAIrHWvZ4Y+HhiH2wX8O0UB/3DCoIMOK+DL+ikejhh00GEJzp3iKYBRuIVI2t13p+gDgEH4hUja9JljlQYsPwJL+1+H98mHQ8a8Lr8CVipnz/EeAQbhV7/Sdxx7kk4eWL2D/pPkeR5OGdPyC5G09e9h/xzkSJiXX4ikFc6R5EUCjMAxRNIK+EzSygOLj8Da7OmxFP9wzpiUY4ikbX9vChjI0EFr+eud5U0CrN1Baxdfml4eyO/0LOA0LQE5EiblGCJpy1+XAiZHAiNwTNnsaV4lQHqHZwFLjWtJ08wD6XmGSNrq6MizTgNW7qC18ObI8yhAciVfAZ95mgEgOdcQSfuO48ozjgPJ3a4F/MlTwORIYAQOWf36vFPIkTAh1xBJLJpMLxMgNdcQSWtbt0ztPLBwB/1Ppmf6ctyYjW+IVB/lmfZMDwNk5hsiaTFwydQOAJn5hkha11oyDeRAYrtv/Wp7I6/FODkSZnNkLGC3tp7zBh20f8mcqV4nQFrOIZLYtF6pJnIgLecQSVwbubUFP5w4puIcIonBTbLHAVYdgZ9cBUyOhKl4h0haz7olG8mBpLxDJG1r5Pha4chBB+2d2+zJngfIyTtEEgumJOsIgJyKewFna+x/OHTMwztEEpdGjo/1cOiYh/sF/DtbAZMjYR7uIZL44cSVrSUAluygxY71zjaUAxm5h0jizsjzuT4cOybhHyKJqU2+JwLy8Q+RtPtuy9cTACuOwNrEueebyoF8/Ov3T74C5g8KMYk9awGXfI8ErNhBa59NHBQw8H/5h0hiv+r7N44fTh4zCAiRxI2Rb2vw5egxg4AQScxsroTPBCRzBRSwdtvdCbsCIJmA+hXnzTvhXA6s10HXjK8W/qAQMwgIkcTIZsv4UEAuASGSeNltKft6IJOIEEksYO8vxL6cPhiB/fZF3o/2w+ljeBEhUn1SFvDD6WN4EfUr3nVHyr4AWK2DFqfNM+VkDiRyhhTwJ2V3T46E4d0hBZx0PP9w/hhbSIikXnU3BQx03RO9GjaT7taANEJCJHXdmzTdAtbqoMVC2bK+WIAkSuYC3rO29kASMSGSOGv6v13IkTC2mBBJ/I4joD3gNwCMwF5xzZH1wYAcjqACTtvf//A7gIHFhEjqqBlQwA+/A6CDdlr2BrxeyJEwsKAQSS2TO+2rBcggKERSG9W8zT2QQVCIpK6K8q7XgAT2mrqAQyb0D78GGFVUiCR+x7HnfTRgoQ5avOb2xOM50F1UiKQOmon/v1ugv6gQSV31hnT45EgYVVSIpBbJmfjlAqwzAv+T+QXD7wHGFBYiqYuimA+1P/wmYEhhIZL6HUdMh/DlNwF00B41cmd+uwB9xYVIapeaekAH+irZCzjoDUOOhCGdcQWcukUgR8KQ4upXLJE99esF6CouRFKb1JJ7QgcW6aDFNVFUzPXllwHjiQuR6pO7gH/4ZcBwAkOkf7Fz98bVAlkQhgUGBiEQwkRBPERBCISAIUOfotxaa701Bs3pbu77RICqTt/5aVBvQsz/3w8gVFgi9e5Rm/cRHfiMI3DvLVFVgOmRkKcwv709zWH+fIDMHBBg9x0C8BE76M4t6uR+RgdkCkuk3kuiugBfzAOyVJZIve9x2P+/AUClskTqzcfi/gsDfMIRuHeHurgf0gGVyvz23hHV/ccfeiSwg/7zlmazf0LgA3bQvetbs98jABqVJVL3CbPZn9IBidISqTvA/t87Ah9wBO792Me/qQYkWmmAv/0DzAeFSFKa39796RSwywdev4PuvSEq/V5qZyoQo7ZE6u1oloBnBASO2gDvAQG+mAqkqC2Rut/jWAPO6cDrj8C9F0SlG316JMSoLZG6K5ot4SGBt++gvxN+Z+iRwA76bwNce9W2MxjIUFwidd8P1Qb4ZDCQobhE6m5oMp4SePcRuHdtmzL2CUCttTrAnafLOeOkDtRq1QH+iggwPRLYQf9lQRPyuglQqrpE6l7a1oyNAlCqukTqPlyuGUd1oFR1ifR7h/zSXMwGOAL/XYBbyHMChcpLpO6V7QjZ6gOFykuk7ncUqwNMjwR20H94OZRSdwF1lvoAx/zUMB2wV14idS9sU8xWAShTXiJ1Hy3nmMM6UKU+Fd2Xu/Wb/Zv5gLn6Eqk7FkvMTw3w3h10dw28xmz2gSKCEqk7wDnXbUARQYnUfTVU/8YJPRLMbYIA7zkB3pkQcAT+o2XtyNksACUEJVL/wTLouA6UEJRI3Ve7ivs2eiSwg/6jUExBPzZABUUmfu9P2O4DBRQlUve5UvKwzAiMKUqk7ptdSYB3hgS+fpMysSb92gDjzVEB3pL2+8BLd9C/UU97MyWwpSiR+i92m+Jp6ZFgS1Ii9Uci6+cGGE1yrdv/ctNv1IYfeOcR+M4K8M6cwJQmEVfUhp8eCa7mrETMWb83wCt30N17UlGAbwYFnpomEVlXbnxQCFdHVoBXzePSI4E7rL8IxEaAgf8R3er+hAWYHgme5rAzpejITo8ET6JLoTvsyE6PBE9bWB5UAb4ZFThqYTtSUX7pkeBJtKL13glNqgDzQSEsifLwlRZgvkeCI1EgumvVWRbgnWGBnzkswIsswCfDAj9L2IlylQX4YljgRxSI77wA3wwL/GxhadhkAaZHgqEjbD/aZAGmR4KhtBuhQxZgvkeCH1WtuucFmB4JflS1atqOgQDD0hK2HZ2EAb4YF7gRtTI/iQG+GRe4EbUy3ZXMLAwwPRLstLAsLMIA0yPBTtpuVBlgeiS4UR0pu++DVmGA+aAQblRHyjPszE6PBEtLWhSaMsAXAwMva9pmVBrgm4GBF9GOtP866FAGmB4JZkQLWn8ho8wvPRLcHGlLmTTA9Egwk3aYnKQBpkeCF1WLdKU9MD0SHC1pAV60AT4ZGThZ04IgDvDNyMDJlrYVXbUBpkeCFdVrEXG/OPRIcCRqkf6lBpgeCVbiFrKmDTA9EpxMcUfJQxzgnaGBD1WrescG+GRo4EN1p3ul7fn5oBCOtrR1bFIHmB4JRlpagGd1gOmRYER1otxjA0yPBCNxZcyiDjA9EnxMccvYKg/wztjAxRx3kNQH+GRs4EK1Ie2/yt3kAb4YG7hQxeHufuImD/DN2ODTA9y/ih3yANMjwcYRd47UB5geCTbybnJ/9RgbmJjiAjwZBHhncOBhjlvEHAJ8MjjwsMQdI2eDAF8MDjyo3or4ifvJoUeCIVWL9B33k8MHhTB0xK1hDgGmR8KHB7j/FLkZBJgeCR5kV7pn9yM3hwDvjA4czHkJsAjwyejAwZK3Bz0cAnwxOnCguhF6cAvkkN8Hd3DAH9riAjxZBJgeCRZUB8qf8ADzQSEsHHEr2GwRYHokOJjyzpCLR4B3hgd6suXsSg/wyfBAb8mb/9UjwBfDA701bwe6eQT4ZnigJ0vDV3qA6ZFgQNUi/ct7ZHok+Dnyxv/wCDAfFMJA4Pr1a2JneqA2BZ4gXQJ8Mj5Qk7VId95vDj0S7Kx50z+7BPhmfKC25e0/bQJMjwQ5WSXTfwO0uASYHglyskomcNdPjwQ7gcO/uQSYDwqhNgVuP30CvDNA0JJdCD24AGo2Ab4YIGgtgQE+bAJ8M0DQ2gJn3yfA9EgQa4G7T5v80iNBTbaanXn3bvRIsBN4gTv7BJgeCVpT4Og7BXhnhKA0B24+F6MAX4wQlGRheHD9sxJgQByG73cEmB4JUok18GYUYHokSB2Be89mFGB6JEglHh4PowDTI0FJ1yKdLwnwzhBBZ04cfKf88o8pobQEbj0nqwBfDBF0ZI3Mv7cEmB4JQrJG5kH9MlsFmB4JQi1w4VqsAkyPBCHZ3N9vCTA9EnR0x8kHdz+rV4B3xggquuPkGXhup0eCmSVx7JtXgC/GCCpr4sbTLMA3YwQV3W70wUMfXgGmR4KMbDF7Ur545ZceCTpH4rJlFmB6JMgkvoA4uQV4Z46goWuR7sSHpkeCF12LdCU+ND0SvKyJq5ZdgG8GCRpb4rlxdQswHxRCpCUGeHMLMD0SRHSvRHy9KMD0SBCJXLSaXYB3JgkKukb1yXsch12AT0YJCrr73Cf3Pnb5pUfCpwX4flWAb0YJClvimjX5BZgeCRIt8dQ4+wWYDwohobsO2l8VYHokSERO/GIY4J1ZQj3dafJJDbwaBvhkmFBvjgzwZhjgi2FCPd1m9OdlAb4ZJtTTReFJ79IMA0yPhI8K8JMV6zAMMD0SBI7IM6NjgPmgEAKZt7a/jnamCdWmyHmfCDDwX8JXmr7eFuCLcUK1JfLIOFsG+GacUE33StNP5M8OPRKsZNbAq2WA6ZFQ7iDA9EjIlXli3CwDzAeFqCa8zn1yZ9s8A7wzUKglvM493xfgi4FCrSVzuTo8A3wzUKi1Zh4YPfNLj4RqutugJ1e2k2mA6ZFQrEUOu2uA6ZFQLLMGnk0DTI+EWlPmeXFxDfDOSKGScCm73xjgi5FCpSVz1lcCDGiTcD547M01wPRIKLVlHheba4DpkVBKmISvNwaYHgmljsxRP1wDTI+EUqGbTdv80iOhUmgNbBzgk6FCHWGLdGf+7tAjwciaOemzb4DpkVBoywzw4htgeiQUapmHReMA0yOhkLCOeXJdu/oGmB4JhUIHfTMO8M5UocoUutV0DvDJWKGK8Db30WVPMw7wxVihivAy6FHdchgH+GasUGULnXPnANPp1sL0AAAgAElEQVQjoUwL3Wka55ceCXWEK9mTu57JOcD0SCgTelk7Wwd4Z65QYwodc+8AnwwWasyhG83FOsAXg4UawiA8uupZrQN8M1ioIQzCz3sDzAeFKNJCp3yzDjA9EoocofvMZh1geiQUSb3pObwDvDNZqKBskc4XB/hktFBhTl2lvPNLj4QaS+g5cTIP8M1oocJKgOmRkEvYxjyqWmbzAPNBIUq00BlfzANMj4QSqbvM1T3AO7OF8ZRHyfvVAT4ZLoynPEpeoWd3eiTYWFLXqOYe4Jvhwnhr6inRPsD0SCig3Ik+evDDPcD0SCggXMiefXHnnl8+KESFI3TCJ/sA0yNhvCl1jxkQ4JPxwpsD/OiWZ/YP8MV4YTRli3SnPjg9ElysqStUQIDpkTDclnpGXP0DTI+E4ZSvQ+ypvzz0SHChfB3i6+UB5oNCDBe7QLWAAO/MF8aKrYH936SkR8J4yrvcZ5e0Afn9vRkwEODcANMjYbAtdX2aEgJMj4TBWuoJcU4IMD0SBlNeBZ2vDzA9EgaLLVmWiADvTBhGmmKXpzUiwBcjhpHm2APiFhHgmxHDSMqN6M8HBJgeCUNtscPdIgJMj4ShWuz28ogIMD0ShjoIMD0ScuXe0Gbklx4JI0lbpDP2yav+SOD/m2MXpzkkwBdDhnGW2ONhSoDpkTCQ8nWmf7k/PfRI8LDFjvYaEmB6JAx0xG4uUwJMj4SBcl8T3lICvDNlGEXaxTy7n20pAT4ZM4wy5wb4SAnwxZhhlCV3aYoJ8M2YYZQ193CYkl96JIwjvQnKPb3TI8FDix3snADTI2GYI3ZrOecEeGfOMIZ0GXv2HseSE+CTQcMY0mXs/pQAXwwaxlhy53rNCfDNoGGMNXdnueUEmA8KMYg0Bc/udlpOgOmRMEgjwPRIyHXkjvURFOCdScMQwRvLoPzSI2EMaQ388zkBvhg1jCBtkb5zf3vokWBhzZ3qOSnA9EgYYsvdVy5JAeaDQgwhrWLOzwkwPRKGkFYxe+7unx4JFoJXpS0qwCezhr83EWB6JOSS3uQ+fI+jRQX4Ztjw96TnyIc3s/9h7wyuJDdyINrFAw80oUygFbSHVtCENIGHOVSPlXo7+/awklrqqUwSiMD/FjT1IgggojjapQxMjwQX8BTWtJR/6ZHgClbhrVLLwHxQCBcQuob25ToPLQPTI8EFCDcrEwaG6jyEJa1m4IbcYDSxJuj722cxA5/IDUYTaoLOWGcRMzA9EgxnETbwU8zA9EgwnFVY0WoGpkeC4ezCO+UqZmA+KIThKKc6u5qBN/QGY4ltkVoxAzcEB2OJbZEO4e2BHgkSMAuvlA85A9MjwWBiq9SPYgamR4LBhDYxnbXKJGdgeiQYzC48kGY5A9MjgZOBO0/CRc/AG4qDkcSekfUM3JAcjCT2jDyF73cMDAmYleW86hmYHgmGEruFHuUMTI8EQ4ndQjsjnV3PwPRIMJTYIdb5x/8UBMnBSHbhcfRQNPCG5mAcsR54FTTwgejAxcCdkeykaOCG6GAcsS3SqfzH0yNBPAsGpkcCXZ7K6+SiaGB6JBhIbIt0KL996JEgntifQmzKbx96JIhHehhpGvhAdTCK2Bap9xzcJQ3ckB2MIjbH7Q1kJf3bG70DZMlxf5Q0MD0SDOOpPIsemgamR4JhxMZAndfgpGlgeiQYxq5s4FnUwBu6g0FIFyqqBj7QHYzhIT2KFlEDN4QHYwi+IqUTOHokCCd2Cf0samA+KIRBxFqgtxBdRQ1MjwSDWKUn0S5qYHokGESsBc6qBt5QHgxBO41V9S89EozhIa3jh6yBG9KDEUzSm+Qka+AT6cEIZgxMjwS6BP+USfv1E9ifAfwitgb+1H790CNBNLv0HBI28Ib2YADal+BT18AH2oN+gnuY3ix21TVwQ3zQz6St4l3XwCfig35m7T1S2MD0SDCA4BSoN8nR9S89EowgOAXSvuBDGzSA8BTos7CB6ZFgALu0gSdlAx+oD3oJHmG9d+CsbOCG/KCX4BHWm8QuygY+kR/0MmtrWNrA9EjQzaK9RT6VDUyPBN0EO6A3x1mVDUyPBN0EO2CrbGA+KIRudm0J79IGPtAfdCK+REr7lx4JeglukXpjnIe2gU8ECH3MGJgeCXRZtBU8aRuYHgk6eWrvkLO2gemRoJPgGqbVNjA9EnQSXMMc2hdAeA0O1REX8FPcwA0FgnKK+1HcwCcSBOEUtzvEWcUNTI8Eyjdkd42yixuYHgmUV9DuASTuX3okkF5ByxuYHgmUV9DeDOchb+ANDYLuBGvaGVyCIhxK8xCXr76BGyIEXQP0LpCzvIHpkUDYAL1//yJvYHok6CC4RfoU//vpkaC0gV8YmB4JOghukboPwFXfwBsqhLdR/yn/rm/gAxXCu0S3SA0D0yPB+0zq4tX3b/8WAnWZxdfHh4GB6ZHgbaJr1N4AZzIwMD0SvE10C/OBgemRQDYD6h4+s4OBN3QImgbuPv8WBwMf6BA0M6AfGJgeCXRPyFP9hqdHgkhm9dmzOhiYDwpBdAPtvv52BwPTI4HoBoqB6ZFAeAPdeh/Awr/0SCA6wNRTdHokiCRa/58YmB4J3ie6RXqpPwA9EkQS3SL9UH8AeiSIZFGfPCYG5oNCeIvoFqmpv4HokSCS6BbpUH8D0SNBJLu6blcTAx9oEd7gJwamRwJZwltU+RWCHgkCic5w+3/Eb+JfeiRQzHBfGJgeCXQz3O6583AxMB8UgmAE1H35TS4GpkcCwQioO3udbQx8oEaQuyAPDEyPBLoXZPfeuNgY+ESOIHdByqdw9EgQiH4N7GNgeiSQk3+/gVcbA9MjgZz8+6fObmNgPigEOfn3330+/qVHAjn5nxiYHgne5iGv2YeRgU8ECb/HJL81TkYGpkeC3yT8Z0wbBqZHgrcJ/xmT/iuIHgni0K+BFyMD0yPBb7LLL41PJwNvKBJ+i58YmB4JZAnvYPpz1xUDQ1nCI9xT/gigR4I4Zv2RY2VgeiTQinAP+SueHgniCE+AumPXh5WB6ZFAKwH6wMD0SCC7f/avjJOXgQ80CULjqz+0mb0M3BAlCI2v/tpk8TIwPRIojS8MTI8Ewuo/9XN0eiQII1z9/Sff6mVgeiRQUv+BgemR4G12fbnuZgY+UCV8G4OF0cy/9EjwfcJbpP7I5uFmYHok+DbhLdILA2NgeJtFX62Tm4HpkeDbhLdIp/4SQY8EYYRXMA0D0yPB2+z6Bl7sDHygS/gmBmJ92hm4oUtQSXD718XVzsAnwgSV+/EDA9MjgayBB1Qmu52B6ZFA5X4c8PHrTz8QJoisnz8wMD0S6K6f/XnNw9DAB8oEjenVuh9hMjRwQ5mgMb36Z81saOATaYLG9NowMD0S6Iq/38CLoYH5hynhW8T/CtHhGeiRoKqBPzEwPRK8zW6wK66OBj7QJnwDh7RmdzRwQ5vw78S3SCcGpkeCd5kcJo2jf+mR4DvEt0j9t97D0sD0SPAN4ivU/rR1sjQwHxTCN3hiYHok0CU+/3E4A+iRIAiHTXHxNHBDnZA//3lhYHok0D0fB7QlT08D0yOBwPl4OjwEPRLEEL99Drj0TFNoeiQQ2D5HZK2eBuaDQvhXVou2c/c08IE+Ib30PfYIeiSIIL5FGnLomaZYJwKF7PHPp8dj0CNBBPGja0xXQo8EJVlMpoxnikWPBOnTn9PkOeiRIID4FmlM0mqaYm0oFJKvnodJGEePBAHYDBl6JChIgn9MymaVoEeC24k/HUcFrZ4pFj0S/COLjUQXSwPTI0HyuTXKwKYpFhKFfyK+RRp25dEjQT3io5/T51HylmzgilHT6ZliNTQKX/MwGjGeKRY9EuROfjajZ6FHgntJ8Atip22CHgnu5ekkUM8UC5HC16xOK6JnirWhUkg8tAaGNJ5fFB6oFL7EKmX1TLEaKoXEuc9p9TT0SHAnk9eAsUyx6JEg89U48sSzTLHokeBLEvx4afN6HHokuJHVS56eKdaGTiHt0Th0QfRMsQ50Cl/gFtFYplgNnULaiTW2JLFMsU6ECmlvxrHqtEyxKILhC2a3/dAyxaJHgrwDa6yBPVMshAppT8bBEatlirWhVPhbVjtxWqZYB0qFv8VvPbRMsRpKhaQX4+iAxjLFOpEqJFX7y++dRI8ENzEbatMxxeKDQsh6MA7fDi1TLKQKScXeDF9K9EhwDwlapMPwrqdHgnvYDWeLZYrV0Crk1Prm+FaiR4IqBrY87OmR4A4StEgXfGjjmGLRI0FOqV+gTMcUiw8KIeeyecFuaJlibagV/kKCFumKdMYxxTpQK2RUevNcLOiR4AZMJ4tjinWiVsh4LF5x2zmmWPRI8Bcy/N90XV9M9EiAgUmx6JEgddhzjS5XwxGMXCGhzq/ZDB1TrAO9Qr5N85psxjHFaugV/oRtO+KYYp3oFfLJ/KK5Yphi0SNBwkXzosvO8LdY9EjwJzK0SNs1j2aYYtEjQcIxZfxuokeCa1l9x4pjirWhWMiW9HwaPxs9ElyLczKzYmAwJ8OaeVk3Yphi0SPB/5GhRTqdE3Z6JLiS2XktNEyx6JEg3ZZ5OCd09EhwJRlq4O2ypzNMsTY0C8lmlPd+IbOugCLeZ51hitXQLOSKeV7ej0ePBNcxmUvSL8WiR4JkO+aVBvZLseiRIFnKc5o/Hz0SXEaGFunKWMYwxdpQLaRaMQ/zkI4eCaxDns39AemRwHlA2a8Y9EhwERlapGtj1QUDgy8ZMp6X/RPSI4HxfLp2ohimWMgW/keGFun0j+nokcA34jn9H5EeCXzHU/O/EuiR4BoKDBS/FOtEt5Ao4dkKPCM9EthOpwpnAj0SuN6Hl8vRL8VCuPBfMrRIrwpvKXokcB1Ol190finWgXIhzXl4eabql2I1lAu/qKFGuxTrRLmQZjZdb2C7FIseCX6R4WPCGw46uxSLf5gS8ij7+kjVL8VCuvAfnjXE6JdibWgXkhyHd/ysyC7FOtAuJBH2q8iLih4JhlMlUbVLsU60C0luwzu0aJdi0SPBR5IWqVV5U9EjgeNguiWPcUux+KAQspyGW5W4nR4JHGW9lXlV0SOB4WJZ51igR4Kx1Lnm7FKsE/VCClW/6ryr6JFgKFMhJbqlWPRIkOMwvGkXdEux6JEgh6hboZeVXPYHqXkW6kPsUqwD/ZYnRYu0FUrc6ZHAzsB3PaxbinWi3+rk2CpL3Qv0SDCOFC3SbWmqW4pFj1SeuZQO3VIseqTyLLU2wd3MwQi4OimuwvuyGLcUa0PBxUmh6FbrfUWPBF475VHr5KdHAq9UZyv2vPRIYCXoGx+YHgmcSLFS3lmGmKVY9EjFWaqp0C3FQsK1eVbbA91SrA0NlybFRnlnEuOWYh1ouDQpWqTzziemCAYj6onQLMWiRyrNo94aaJZi0SOVJkeks9V7ZHokGEGKFuneKsQtxULElXkWHCL0SGBDikTnVfCZ6ZFgBClapJuDVLMUq6HiwlRsQsxSLHqkwuQIdM6KD02PBP1MJZdAeiQwIcc2eXcMY5ZiIeO65MhztpJPTY8EJrOo5t5BjwTdpGiRbj/izFKsho7LUjRG9TLwiY6rkmMU3V9keqVYFMFlmYpOEK8Uix6pLDnSnFb0uemRoJOlqIHNUqwNJRclxyp5FA3v6JGgk73qAPFKsRpKLkrZE84rxTpRck1ynIIRIapXikWPVJQcLdKr7JMr/xeEBMx15wc9EuiTo0UKueC8UqwNLZckR5TT6j46PRLoj6EQA3ulWA0tl2Svu/95/RbrRMsVSSLimAOOHgnUSdKlVN4+6JFA/Q4M+hjOKsXig8KSLJWnh1eKtaHmguQYQn+wdwfHkSQ5EEWneOChRKAIlCLlKSlShBQhD32gjZQjQ/WuGeGO90UIAhHA96zuX9rfur7FOlXzQmakSL9lUOVICOe1uvaqLNatmheye/qrslhypIUM2QJ/y79UWSw50kI+dzdwlcWSIy1kRor0ez+Fq7JYynkfX8vfjiqLdarndcxIkX6WX2ByJES/QL/nT6ss1q2e17G98qoslhxpHY/1s58cCcEMeYB+0b40WSw50jqGpEjHdg0vR0Jy+f7iCVRZrENFL+N7/ehXZbEuFb2M1/oGrrJYt4peBntaZbHkSMt4qLsqiyVHWsaHya/KYsmRljGkeC+XmBwJuePjyQPIkZDbwL9bdk0W61TTq3gZ/Los1q2mV0G9lFksOdIqhqRIvxx+NFksOdIqPlRdmcWSI63i09zXZrEU9SaezEubxTpU9SKGVO5lEJEjIXd2/O2ia7JYl6rWwOvGPjkSEhmSIv3rItPAyB0dfz/6KLJYcqRFDJE3Pw5CjoS/4Gnq67NYh7pew5cG7rNYp7pew7fvOPos1qWu1/BScn0W61bXW3gY+gotlhxpDVPUzeEo5EjIfXYmnIUcCXE8PRmNFutQ2UsYYm5+nIUcCX/BkBRphHV59jTwpbKXMGRsvAk9ORJyxc3lMORIeJ+HBq60WP5hyiVMSZFmSJcii6W0dzDF2xxOQ46E3DdnxmkUWaxTba9gSIo05NO/R08DX2p7BUO0zY/jkCPhL5B6lFosOdIKHt6LkVJejoQoa3M5j06rgB0vzhRnWmSxDtW9gC8N3GqxTtW9gG/PRavFulT3AqY8OGMOpOdbrFt1L4BxqbVYcqQFTHE2P05EjoTc92bQa1FjseRIC5iSIg3a13oslvLuZ4qyuRyJHAm5z82gWuuxWJf6rmfKwnfwenIkvI/P/ootlhypnjGvjbVCjoTcfW9U4lFjseRI9Xx6K5otlgJvZ8pjM2pb67FYhwovZ8q6N8uX1lisS4WX863Smi3WrcLL8c1QtcWSI5UzZtubtazVWCw5UjljKtW9JkfC+3wqtG6LpcS7eWrgbot1qPFqphTqj4ttgxzE/5spKdI0W1pjsW41Xs1LnXVbLDlSN74YKrdYcqRqxkyK41a1FoslR6pmzP/EN06W1lgsRd7MU5m1W6xDlRfzZdBrt1inKi9mSoo0ULW0WKxLlRczpUr/uNvkSHgfVVZvseRIxYxZ9O55Z9NiseRIxYwp0svlJkdC7pg4UZW2WKxDndfypcgCDkeOhOmm1XgiR0LulDhStHyWNPCtzmsRdSywWILgWh5qbIHFkiPV8qGBIwyBHAmzt7yZa1qLxTpUeiljgpLL/SZHQm4DzyyxFot1qfRSXoa8DRbrVuml0CwrLJYcqZQxI+LUoKPEYsmRShmTIk39yeqnBsZgPs14OyzWodYrGTMhjrUsJRbrVOuViIGXWKxLrVfyUmA7LNat1isx4i2xWHKkSuYomsMRrbT8+J+Y888u2jLkSMidDwfXV4nFOlR7IU8T3haLdar2QsakSIMdS4nFulR7IWPGw5vokyMhV9BcDkmOhNzHZfKG1mGx5EiFfGjgNRZLjlTIHD9zOKW9STvy3xaLhhwJb/NlvttjsS71XscYPfPjmORIyH1aZmccHRZLjtSH12GRxZIj1THHzlzOSY6E3JdluCHtsFgKvo05u91B9q0/ZLzNl9raZLEuFV/Gt+luk8W6VXwZY1a76X6lw2LJkdqQcKyyWHKkMh7ehlUWS45UxpwfE47fzjoslpLvYo6auRwV1493mZMinbYNx4zcxW7+01BhsW41X8WconTZcYV4G3p0mcWSI1Xx0MDLLJYcqYoPL8M2i6Xom5jzqCTsZnIkWOuC7WiFxTpVfRFzSvJy3TlovMvLw7DNYsmRmrCarbNYGriIQRXpvpMj4V0+lNU+i6Xse5iz1GV8IPQlRwKtmruZVVisU93X8KWB91msS93XMGenuzMO7FXQwLe6r8GzsNBiyZFqGDQRhixmDRZLjlTDnBQpRY1WWCyF38KnotposQ6VX8LTWJdrDeRImLPRxfxDLw0W61L5Jcypxj/uPDkS3uWlpjZaLDlSCx6FlRZLjlTCoBTpculpYOSOgzlitMFiHWq/gqeS2mmxTrVfwaBaNLZYWJA7DQZtZQ0W61b7FcxJkZL+wx45EpRicEUVWCz/wVkFDzPdUoslR6pgkI65HBvpDw3MYsmR9vCloLZarEv1F/BtpNtqsW7VX8CcFCnrH3kpsFhypAZY0bUWS45UwEM9rbVYcqQCPkx0ey2W8s9n0CQY5lQKLNap/uMZ5GIuJ+fEkfuOhL0HBRbrVv/xDEqRDvqPdUCuijkcHe+P3GfE9iFHwpt8qKbNFksDpPNpnttssQ4dEM6TUWmYXuRIWxk0Bt4EoDPHm7y8BpstlhwpHd/1rbZYcqRwJqVIeUIl32LJkcKZ5GFcfw4dwW+IBcTYgzd5muZKFOAa8YChGubH8cmR8CaDgpDERCPfYsmRsnl5C1ocoBxpIZM06pV4gHIkeEGCdUq+xdIEyUza4Q4S0LHjPZ6egu0W69QFwQx6QDKXsXyLdemCYL418HaLJUdKZpCD+XGCzh2570foSxBvseRIwUyKgW8enzxEbvWFypR8i3Xog1gmpUinLcTBI3eBS30I4i3WpQ9iGZQi/esSJB+Q+3rEytB4iyUIzkUcyWLJkXJ5eAdYLDlSLh8amMWSI+UyKUXKVSnxFuvUCUpvcZgRb7EunRDKt2eAxUoefrYzaXsLXsTkSFB57kE5Et7joYhYLDlSLpOWt+SflcdbrEMvKLzFe1i8xTr1QiRiYBZLjhTMtwZmseRI6m79I5BuseRIJr/Va1i6xfIPU0YyKUXKFqHpFksQrOx2R5FyJOwe/MLfgHSLdeqGQCalSOFbWLrFunSDqtvsQdMt1q0bAhEDs1hyJObFDJdvseRIgTw0MIslRzL20aAFFks7EC+rg8h0i3XqhzieXgAWS45k6rODFVisWz/EMSlFyreg4RZLjqTkdtdPuMWSI8XxMMHVGgU5kgbmUHZZLA2Rxqjg48w/z/AGPnSEmW91+YRbrEtHsC6rGzjcYt06IoxJKVLDBhZuseRIRr7dDjTcYsmRSJfd1fPIbmA5knpbPr+FWywtkcWoFKnCoIRbrENPcC6rM4zwXxSeesJ7sbp4wi3WrSei+Da+sVhyJMqFQCmxWHKkLEQYLJYcybyndoZ6QTlSNx+mNxZLjpTLqMyjxJ+EW6xTV9jXdicY2Rbr0hVBfCsdFkuO5LEwvNVYLA2cBH3CYsmR+BYBRpHF0hbeiuVXf7bFOvRFDJ8amMWSI9Et7EmRxbr0hadidwNnW6xbX1jWdhdOtsXye6QcjG4slhzJS0GeVFksjWFXWx5fZFusQ2eE8OniZ7HkSB4Kq1eVxbp0hlVtufyMtli3zgjhWwzMYpX/Jap5KRsWS45kUzO4VVksDazKtquTbIt16I0IZqVIp+3EnwK5i1rXtR9tsS69ociWf8AXbbFuvRHBqBSpzJxEWyw5kj1t93cc4RbLDwozcOuzWHIkU569a/x+IkdqZFaK1GY+oy3WqTuU2PIGjrZYl+4I4Mulz2LJkWxp1q46iyVHUmG7v+P4J/tbLDlSApILFkuOZElz5ydI/u3zUCGzNOkfFySliNwRr9B7JlusS3+QLNsrJvlbrFt/qK/tM1uyxZIjmfDWN3CyxZIjzcfn8yyWHEl5yS0qLZYGmc6HG5/FWjUR2dDsXHss1qVDVNd265lssW4dYr7bXi/JFkuOxLCY2IItlhxpOr69ZbHkSMY70rPUYmmR2XxoYBZLjqS23PelFuvUI6a79RtXsMW69chovjhPFkuO5G1QLaUWS46kgc1rwRZLjkSv+PI22WJpkskMS5FqlWewxTp0idlufbEEW6xTl7Ar68e1YIt16ZLBzEqReoVJsMWSIxntNHCwxZIjkStqJdhiyZE8DKa1ZIulTeYyLEW62UI5EnLdyuWk5UjIfReKSyXYYl36ZCxfhjUWa/FiQ63QJf0WS47kWRBYBFssOdJcXPUslhyJWdHA1Rbr0CleBV/d5lqsU6fYy+jOXIt16ZShfCkUFkuO5FEwqlVbLD8otJaRJcEWS440FXEFi+UP401w0ZdbrEOvjGTYjwnbP9nLtVinXqFVuJJci3XplZF8aWAWS45kKVMmkc7Q1UqLGtRWWCw/KPQiUCXBFksQbCcTViRbrEO3DGRYivSvG1OOhNwHYcGcJkdC70q2wJTEWqxbtwxEDLz8xP1tsnm55Vks05GNzJ5Vb7HkSKpJA/8T/IvCQ7+MY1qKdC44828NjNaFbEONxFqsS7+MY9qHfS5NORJyX4MVniTWYsmR7GOSin9yv8WSI6kld3ywxZIjmeZsWckWS8NMY1qKtMNzxlqsQ8copfUxcLDFunTMMJ6ueObBhmMb08ArLJYcSSWxJMEWS440jWHf1W/JKVItlhzJMuaGT7ZYOmYW01KkPy5OORJyR7k1ljPVYp16ZhTTUqSL/ZcjIbeO1lzwqRZLjmSSs2IFWyw50ixeGpjFkiMpIynFFoulZwxy7vdgi3XomkFMi4EXbVipFuvUNYOYliItcpypFuvSNeY4KWOuxZIjMSmu92CLJUeaxLQUadOCFWqx5EjGOIoz2WLpGiJFcQRbrEPfjOHDeGb8seaY4jTwIot16RseheHMtVi3vlFCMsZciyVHmsPL5c5A2HNoFOvVJoulb6YwLshYJjhDLdahc8xwSiPXYp06h0UxnOVarEvnDOFJj1hhqEYjnIBilcXyg8IpvDSwP4BByQPgal9lsTSwFcxylWyxDr0zgnEp0uUvIEdC7v2/rzDkSPh7nkYzFsuqQ6H4jmOZxZIjzWDap7gL7WamxfKDQvObugi2WHKkETxMZiwWWeH218DrLNape+xf5Gauxbp0zwCeysIt6qp1+RvM1lksOdIEpqVIO9WIHAkt/sRfQY6E3Lt/Z1VkWqxD+/w6D3MZi6WBVQ4zstBiXfrn1xmXIt02mf/at4Mbx40gCsMeAd6D7rpMCIpCKfhgHRzCRMEQGALPjNLAAnuY9QL2wCK7X9X3p1DdVV3vJ3kk5C5fTbt6ZA2lBK8AAAuXSURBVIrFI43n7gJrpPIKnd93HA1TLB7J7iXZTE6x3J/RvDkTOqluq/F7lbVMsVY3yOolF8lNsTY3yLFhJnJTLB5pNHc93TLjvWTzslW1TLF4JKeGBk5OsdygscxnkR7iCB4JuYtX3xMRmWIt7pBD402Wm2Jt7tBQrlIReQSPlMt0Fqmzl0hMsXgkZ0ZHD06xeCSvNjtVcorlDo1kPou0UgI8EnKPzOI9xCMh99HWuqEnplirWzSQ6SxS75UqMcXikZwYFzg4xeKRRjKdBu5tJRJTLB5JaqKfJ6dYbtE45rNIzTeqxBTr4R55svmOIzfFWtwjoQkpMasVUDLnRTsvnWJt7pEXm4UqN8XikcYxnUVqH2kGplg8kuPiMCSnWO6RB5sLHJxiPVwkkYl9KjfFWtykQcxnkdp/Gf8WeIFXN8l7jZLITbEUTWKimQenWH4oHMV8Fsk6FfhHIY/kuSbQTE6x3KRBOApSLG3XWfEYa55iWXysWzRwcIolenSB5Zk/CPwWa1M1vd4Fzk2xlG0Md61cMmHzEZdYppqnWLLHMYgzbTY8kreag9A+xdJ4pSW+4whOsaw+I5jPItmlQlMs4aNdS5oZnGLxSCO4Owc6q86r0XuJtU+x7D4jsEpJsegDWYkwU4rFI+nzjkFyiqX1ns83DzEpluVHVOI7DikWf6DNyzKTUyweyaLlFASnWHrv+XiHaa62H11eEiLFkj/as7iI7BRL7c7mm0Ogu3o9afK+45BiyS+sWfao7BSLQTibuyRTe+WR9HhnQIql+9qyvMLCUyz7T/sTIgdJTrEkkOcyoUXaVCU4xVK99kvWqipTZ4zeT2JOj7CyKZYEo32HF4Mkp1gcQvsdywWOTrHU7FScAB1W/9XgvcEahRQijHmY0CJJQbJTLBKh+fHgIWZvserngeZLgLIplhfUmdw9waRYMgynQwjSqceyCNNAQ4gpFNCCpYFLsTyhBnBxgTVZIYbnmQxEikUjDGBCi8RCpKdYKtj6bPgOID3F8oZq/TrzAItPsZTsNEQgUiweydEgIaRYSjiAi/YtqfCIsl1ZoKRYYgwnQ4RZI8UiEhq/zVzg/BRLDRunI74CyE+xXOCz8PzyUhJEepoJQKRYPNIAZrRIq7Lkp1iK2PdcaN4FUizPqL4vM+tTgRRLkHEO777jkGJRCY4FAyHF0oYHoHdLKyxCohHbkxRLFDmAiwssxeKRvMsICCmWMkpGtO46KZaH1BnMaJEsTyVSLFlk12eZ+LJEisUGdg1GVKVGiqUR92zqOneRFMsF7nmB7U5FUixhZM9cRHpZJMXaVKxlT1f3IimWTnw8715eUiy7kFjEBZZiSSO1dN9xlEqxFOxw2AcplkpKRfRtKZZlSEe3OdVKsfiEjjuV7LJMisUjHc27quu4erGG7t0lxbINWakkH8VSLAU7GNGlivFI+rmiS7F8kzOAiwssxZJniETsTVIsRmEAM1okyWWhFItH6rdQqXmhFEs3PpYPry5N1z6km8s9eq89Ekn7FA1cMsVaFOxALkqu62rHmrlHV/fgQqIxhKsLLMXiFOQhckspFo/kMabiBVMs9ToQby4plo3ISZB66LukwgCmtEibupRKsVb16rVMKXitFEtDPo6rJ5fGK9PQyYUesgtWwS5FO5RMsZTrMGhgndeTykvMBbb7CDUGMKVFknlUS7FW9ep0DHzHUS3F2tTrIK7KLcXSkm1SHlxSLKmGUyDyKJpiKddBzGiRSId6KZaSdlqklKVciuVRdQxTWiQLU70US6zR6BlGA9dLsTblOoSrCyzF4pGcAcX2fNKUvcI8t8qmWMp1CFNaJIFHwRTroVxtjsCiLvVSLEXt8wjTrAumWJ5VRzClBrYuVUyxBBtHMKVF8h1HxRSLWmjzBmMcKqZYqtomBdGrK6ZY3lVH8OECe0GJJj3BxB1SLB5JCEI4fJFL0AVW1i7116pLplgeVl1eYJalkimWaOP1TKmBfcdRM8XikZr0b76hZoqlrq/nQ6cWQ3pZiUDsSkoo29C+pZVFHlE80jlc1FmKpTNLQFxgNbQbDWBOi7QoTPwrSjrZ+Pkl6yiaYvFIr2bOz3jUpWqKpVgdmrc+XTbF8rZ6LXNaJJtS2RRLPNkh/5BVlk2xXOAOvXtTmKoplt78Wq7atBTLdiT+oIGVUT45gLsLbBPikby9uAYpltqez5suLcXyutK57UleUgJKu5Oksn6KxSO9kqsa68S6s8btOw67kP1oAHNaJGtS5RRLrcpnH4LKyinWQ7Gq920lrpxiac+v480FlmJZkIIv8B9TojCVUywRJRCcYvFIQHCKxSMBySmWWgHBKdZDsYDcFGtRLCA3xVrVCshNsTa1AnJTLD+bAcEpFo8EJKdYagUEp1gPtQJyU6xFrYDcFGtVKyA3xdrUCshNsXgkIDjF8kMhkJxiKRUQnGI91ArITbEWtQJyU6xVrYDcFGtTKiA3xeKRgOAUi0cCfsHVD4WAFItHAqRYLjBQMsValQr4B08eCUjl95hvoXkk4Gduew48EvCJt7+C7i+PBMSOXz8UAsHjl0cCkscvjwQEj18eCfhBkDzikYCfeO6R8EhA6vjlkYDg8csjAcHjl0cCfvtzT2ZVQHQmUh65wMB3bns4PBKM32B4JBi/wfBIMH6TUUi0JFoe8UhoznMvwqKWMH55JMD45ZEA45dHAjqMXx4JzSgij3gktOS2l+OhqjB+eSTA+OWRAOP3K2xKiwbUkkc8Enrx3KvCI8H45ZEA45dHAoxfHgnoMX55JJSmqjzikdCB214fPxTC+OWRAOOXRwKMXx4J3akuj3gkVOa592FVbhi/PBJg/PJIgPHrh0IYv11QdFShjzzikVCP296RReFh/PJIgPHLIwHGL4+EVrSTRzwSCvHcG+OHQhi/PBJg/PJIgPHLI8H45ZGAuWksj3gkxHNzeXkkGL88EmD8+qEQMH6JYNQfv+QRj4RYyCMeCbH4doNHgvHLIwHGL48EGL88EupDHvFIyMW3GzwSjF8eCTB+eSTA+OWRYPzySMC8kEc8EmLx7QaPBOO3MotjAuOXCAaMXx4J+A55xCMhF/KIR4LxyyMBxi+PBBi/PBKMX/BImBfy6KtsDg1mwbcbPBKMXx4JMH55JMD45ZFQH/KIR0Iu5BGPBOOXRwKM3yz8UAjjl0cCjF8eCb0gj3gkxOLbDR4Jxi+PBBi/PBJg/PJIqA959Dr8UIizIY94JBi/4JFg/PJIgPHLI8H4BY+EeSGPeCTE4tsNHgnGLz7jh0IYvzwSYPy6wCg5fskjHgmxkEc8EmLx7QaPBOMXPBKMXx4JMH6nwjnDMZBHPBJi8e0GjwTjFzwSjF8eCTB+eSQYv+CRMC/kEY+EWHy7wSPB+AWPBOPXBQaMXx4JDSCPeCSQR+CRYPzySIDxyyPB+MWhLE4gjF8eCeQReCQk4dsNHgnGL3gkGL88EmD88kggj8AjgTwCjwTjtzSb8wjjl0eC8QseCcYveCSQRzwS8AnfbvBIMH7BI8H4BY8E4zcePxSCPOKRQB6BR4LxCx4Jxi+PBBi/PBKMX/BIII/AI+G/49uNCPxQCOOXR4LxCx4Jxi94JPy/8Use8Uggj8Aj4XSMXx4Jxi94JBi/+Df8UAjjl0cCeQQeCePkkW83eCQYv+CRYPyCR4LxyyPB+AWPBPIIx+AIt8a3GzwSjF/wSDB+wSPB+OWRQB6BRwJ5BB4Jxi94JBi/FXk40MYveCQYv+CRQB6BR8Kv8e0GjwTjFzwSjF/wSDB+eSSQR0hlcbjJIxDBMH7BI8H4BY8E45dHgvELHgnkEXgkfB3fbvBIMH7BI8H4xSFsjrrxCx4J5BF4JJBH4JGMX/BIMH7BI8H4BY8E4xc8EnmEWvihsAy+3eCRYPyCR4LxCx4Jxi94JAAAAAAAAAAAAAAAAAAAAAAAAAAAAAAAAAAAAAAAAADA0fwNKdYX6paDfpIAAAAASUVORK5CYII=;" vertex="1" parent="1">
          <mxGeometry x="360" y="-240" width="70" height="39.38" as="geometry" />
        </mxCell>
        <mxCell id="g7OZx259YmDq5c4rlB1h-9" value="&lt;span&gt;&lt;font style=&quot;font-size: 14px;&quot;&gt;Azure Cloud&lt;/font&gt;&lt;/span&gt;" style="text;html=1;align=center;verticalAlign=middle;whiteSpace=wrap;rounded=0;fontStyle=1" vertex="1" parent="1">
          <mxGeometry x="424" y="-230.62" width="90" height="30" as="geometry" />
        </mxCell>
        <mxCell id="g7OZx259YmDq5c4rlB1h-45" style="edgeStyle=orthogonalEdgeStyle;rounded=0;orthogonalLoop=1;jettySize=auto;html=1;" edge="1" parent="1" source="g7OZx259YmDq5c4rlB1h-44" target="g7OZx259YmDq5c4rlB1h-42">
          <mxGeometry relative="1" as="geometry">
            <Array as="points">
              <mxPoint x="1430" y="495" />
              <mxPoint x="1430" y="495" />
            </Array>
          </mxGeometry>
        </mxCell>
        <mxCell id="g7OZx259YmDq5c4rlB1h-44" value="" style="verticalLabelPosition=bottom;html=1;verticalAlign=top;align=center;strokeColor=none;fillColor=#00BEF2;shape=mxgraph.azure.computer;pointerEvents=1;" vertex="1" parent="1">
          <mxGeometry x="1580" y="414" width="170" height="180" as="geometry" />
        </mxCell>
        <mxCell id="g7OZx259YmDq5c4rlB1h-49" value="" style="edgeStyle=orthogonalEdgeStyle;rounded=0;orthogonalLoop=1;jettySize=auto;html=1;" edge="1" parent="1" source="g7OZx259YmDq5c4rlB1h-3" target="g7OZx259YmDq5c4rlB1h-48">
          <mxGeometry relative="1" as="geometry">
            <mxPoint x="755" y="-96" as="sourcePoint" />
            <mxPoint x="755" y="140" as="targetPoint" />
            <Array as="points" />
          </mxGeometry>
        </mxCell>
        <mxCell id="g7OZx259YmDq5c4rlB1h-48" value="" style="sketch=0;outlineConnect=0;fontColor=#232F3E;gradientColor=none;fillColor=#8C4FFF;strokeColor=none;dashed=0;verticalLabelPosition=bottom;verticalAlign=top;align=center;html=1;fontSize=12;fontStyle=0;aspect=fixed;pointerEvents=1;shape=mxgraph.aws4.endpoint;" vertex="1" parent="1">
          <mxGeometry x="714.5" y="40" width="78" height="78" as="geometry" />
        </mxCell>
      </root>
    </mxGraphModel>
  </diagram>
</mxfile>
